<svg width="753" height="306" viewBox="0 0 753 306" fill="none" xmlns="http://www.w3.org/2000/svg">
<path d="M537.996 121.602C536.257 120.871 534.538 120.195 532.84 119.573C512.479 113.307 490.863 112.962 469.897 120.282C447.539 129.83 430.367 147.702 415.943 160.321C381.327 200.544 338.737 229.2 286.835 240.263C216.138 255.332 178.435 248.117 107.844 234.021C70.6044 226.586 3.33771 194.88 3.33771 194.88L3.42949 126.88L3.51054 66.8806L3.5916 6.8808C3.5916 6.8808 121.2 134.224 178.559 156.709C234.872 178.785 313.793 216 396.454 173.848C402.694 169.692 409.147 165.186 415.943 160.321C432.452 139.826 450.908 126.911 469.897 120.282C487.337 112.833 507.932 110.449 532.84 119.573C567.739 130.313 598.953 158.448 616.896 195.209C622.269 206.216 623 223.204 614.5 236.5C603.043 254.423 574.5 260.696 574.5 260.696C574.5 260.696 609.358 223.698 602.896 195.19C596.435 166.681 574.696 137.035 537.996 121.602Z" fill="url(#paint0_linear_43_298)"/>
<path d="M551.859 223.204C543.297 200.378 505.915 213.907 505.915 213.907C505.915 213.907 538.792 179.458 565.891 199.222C598.859 223.267 577.789 275.239 530.762 295.175C487.167 313.657 417.814 256.373 417.878 209.023C417.961 147.023 461.995 122.082 490.003 116.12C530.351 107.531 563.584 135.75 611.936 166.285C638.913 183.321 702.696 221.944 749.859 223.471L749.761 295.471C711.786 276.837 705.796 269.411 643.878 209.328C588.15 155.252 551.972 138.993 507.951 155.144C477.145 166.446 449.899 193.066 449.839 238.066C449.792 272.842 488.042 300.922 520.77 289.162C543.712 280.917 560.421 246.029 551.859 223.204Z" fill="url(#paint1_linear_43_298)"/>
<path d="M242.147 124.518C174.512 97.1124 73.0597 73.9746 73.0597 73.9746C73.0597 73.9746 100.852 110.8 141.992 124.383C149.988 127.023 172.37 132.251 205.291 138.893C319.941 162.022 316.9 192.304 371.813 256.878C426.726 321.452 515.756 299.572 515.756 299.572C515.756 299.572 444.644 299.476 400.5 256.917C345.394 203.79 309.992 152.008 242.147 124.518Z" fill="url(#paint2_linear_43_298)"/>
<path d="M511.462 230.5C519 244 525.679 246.622 534.5 251.5C623 292.5 618.5 183 748.995 122.795L748.937 165.795C667.572 197.606 577.728 311.597 511.462 260.008C497.062 248.797 496.151 230.021 505.915 213.907C498.567 205.38 500.873 196.749 505.395 187.999C510.818 177.507 528.269 170.838 541.418 170.855C563.918 170.886 578.822 197.5 578.822 197.5C578.822 197.5 557.415 178.002 530.054 192.033C519.283 197.556 511.096 205.357 505.915 213.907C507.38 215.606 503.925 217 511.462 230.5Z" fill="url(#paint3_linear_43_298)"/>
<path d="M3.42949 126.88C11.9529 136.065 146.883 205.074 235.874 211.194C314.449 216.598 349.389 205.194 396.454 173.848M3.42949 126.88L3.33771 194.88C3.33771 194.88 70.6044 226.586 107.844 234.021C178.435 248.117 216.138 255.332 286.835 240.263C338.737 229.2 381.327 200.544 415.943 160.321M3.42949 126.88L3.51054 66.8806L3.5916 6.8808C3.5916 6.8808 121.2 134.224 178.559 156.709C234.872 178.785 313.793 216 396.454 173.848M532.84 119.573C534.538 120.195 536.257 120.871 537.996 121.602C574.696 137.035 596.435 166.681 602.896 195.19C609.358 223.698 574.5 260.696 574.5 260.696C574.5 260.696 603.043 254.423 614.5 236.5C623 223.204 622.269 206.216 616.896 195.209C598.953 158.448 567.739 130.313 532.84 119.573ZM532.84 119.573C507.932 110.449 487.337 112.833 469.897 120.282M532.84 119.573C512.479 113.307 490.863 112.962 469.897 120.282M469.897 120.282C447.539 129.83 430.367 147.702 415.943 160.321M469.897 120.282C450.908 126.911 432.452 139.826 415.943 160.321M415.943 160.321C410.654 164.949 405.734 168.871 401.063 171.417C399.525 172.255 397.989 173.065 396.454 173.848M415.943 160.321C409.147 165.186 402.694 169.692 396.454 173.848M505.915 213.907C505.915 213.907 543.297 200.378 551.859 223.204C560.421 246.029 543.712 280.917 520.77 289.162C488.042 300.922 449.792 272.842 449.839 238.066C449.899 193.066 477.145 166.446 507.951 155.144C551.972 138.993 588.15 155.252 643.878 209.328C705.796 269.411 711.786 276.837 749.761 295.471L749.859 223.471C702.696 221.944 638.913 183.321 611.936 166.285C563.584 135.75 530.351 107.531 490.003 116.12C461.995 122.082 417.961 147.023 417.878 209.023C417.814 256.373 487.167 313.657 530.762 295.175C577.789 275.239 598.859 223.267 565.891 199.222C538.792 179.458 505.915 213.907 505.915 213.907ZM505.915 213.907C507.38 215.606 503.925 217 511.462 230.5C519 244 525.679 246.622 534.5 251.5C623 292.5 618.5 183 748.995 122.795L748.937 165.795C667.572 197.606 577.728 311.597 511.462 260.008C497.062 248.797 496.151 230.021 505.915 213.907ZM505.915 213.907C498.567 205.38 500.873 196.749 505.395 187.999C510.818 177.507 528.269 170.838 541.418 170.855C563.918 170.886 578.822 197.5 578.822 197.5C578.822 197.5 557.415 178.002 530.054 192.033C519.283 197.556 511.096 205.357 505.915 213.907ZM73.0597 73.9746C73.0597 73.9746 174.512 97.1124 242.147 124.518C309.992 152.008 345.394 203.79 400.5 256.917C444.644 299.476 515.756 299.572 515.756 299.572C515.756 299.572 426.726 321.452 371.813 256.878C316.9 192.304 319.941 162.022 205.291 138.893C172.37 132.251 149.988 127.023 141.992 124.383C100.852 110.8 73.0597 73.9746 73.0597 73.9746Z" stroke="white" stroke-width="5"/>
<defs>
<linearGradient id="paint0_linear_43_298" x1="222.036" y1="81.7909" x2="311.17" y2="414.726" gradientUnits="userSpaceOnUse">
<stop stop-color="white"/>
<stop offset="0.572917" stop-color="#D9D9D9" stop-opacity="0"/>
<stop offset="0.984375" stop-color="white"/>
</linearGradient>
<linearGradient id="paint1_linear_43_298" x1="426.066" y1="24.5764" x2="210.578" y2="432.653" gradientUnits="userSpaceOnUse">
<stop stop-color="white"/>
<stop offset="1" stop-color="#D9D9D9" stop-opacity="0"/>
</linearGradient>
<linearGradient id="paint2_linear_43_298" x1="307.181" y1="-18.44" x2="487.286" y2="346.127" gradientUnits="userSpaceOnUse">
<stop stop-color="white"/>
<stop offset="0.520833" stop-color="#D9D9D9" stop-opacity="0"/>
<stop offset="1" stop-color="white"/>
</linearGradient>
<linearGradient id="paint3_linear_43_298" x1="502.858" y1="223.555" x2="644.136" y2="17.7454" gradientUnits="userSpaceOnUse">
<stop stop-color="white"/>
<stop offset="0.322917" stop-color="#D9D9D9" stop-opacity="0"/>
<stop offset="0.791667" stop-color="white"/>
</linearGradient>
</defs>
</svg>
